<svg xmlns="http://www.w3.org/2000/svg" viewBox="0 0 330 58"><g fill="none" fill-rule="evenodd"><path d="M0 0h24v24H0z"/><path d="M10.96 4.353a1.707 1.707 0 0 1 2.08 0l6.293 4.834c.42.323.667.824.667 1.354v7.175c0 .943-.764 1.707-1.707 1.707h-2.61a1.707 1.707 0 0 1-1.708-1.707v-2.733a1.975 1.975 0 0 0-3.95 0v2.733c0 .943-.765 1.707-1.707 1.707h-2.61A1.707 1.707 0 0 1 4 17.716v-7.175c0-.53.247-1.03.667-1.354l6.293-4.834z" fill="#FFF" fill-rule="nonzero"/><path d="M0 34h24v24H0z"/><path d="m10.662 38.458-5.804 4.495A2.22 2.22 0 0 0 4 44.709v6.497c0 1.223.983 2.214 2.196 2.214h2.207a2.206 2.206 0 0 0 2.196-2.214v-2.494c0-.78.627-1.412 1.4-1.412.775 0 1.402.632 1.402 1.412v2.494c0 1.223.983 2.214 2.196 2.214h2.207A2.206 2.206 0 0 0 20 51.206v-6.497a2.22 2.22 0 0 0-.858-1.756l-5.804-4.495a2.182 2.182 0 0 0-2.676 0zm1.836 1.103 5.804 4.494c.201.156.32.397.32.654v6.497a.821.821 0 0 1-.818.824h-2.207a.821.821 0 0 1-.817-.824v-2.494c0-1.548-1.245-2.802-2.78-2.802-1.535 0-2.78 1.254-2.78 2.802v2.494a.821.821 0 0 1-.817.824H6.196a.821.821 0 0 1-.817-.824v-6.497c0-.257.118-.498.32-.654l5.803-4.494a.812.812 0 0 1 .996 0z" fill="#FFF" fill-rule="nonzero" opacity=".4"/><path d="M34 0h24v24H34z"/><path d="M49.455 4.236a.747.747 0 0 1-.012 1.035l-.022.022-1.8 1.687 4.64.001c1.23 0 2.238.954 2.323 2.162l.006.167v8.361c0 1.23-.954 2.238-2.162 2.323l-.166.006H39.329a2.329 2.329 0 0 1-2.323-2.162L37 17.67V9.31c0-1.23.954-2.238 2.162-2.323l.167-.006h4.512l-1.799-1.688a.747.747 0 0 1 1-1.112l.023.021 2.667 2.502 2.666-2.502a.747.747 0 0 1 1.057.034z" fill="#FFF" fill-rule="nonzero"/><path d="M34 34h24v24H34z"/><path d="M49.455 38.236a.747.747 0 0 1-.012 1.035l-.022.022-1.8 1.687 4.64.001c1.23 0 2.238.954 2.323 2.162l.006.167v8.361A2.329 2.329 0 0 1 52.262 54H39.329A2.329 2.329 0 0 1 37 51.671V43.31a2.329 2.329 0 0 1 2.329-2.329h4.512l-1.799-1.688a.747.747 0 0 1 1-1.112l.023.021 2.667 2.502 2.666-2.502a.747.747 0 0 1 1.057.034zm2.807 4.24H39.329a.834.834 0 0 0-.834.834v8.361c0 .46.373.834.834.834h12.933c.46 0 .833-.373.833-.834V43.31a.834.834 0 0 0-.833-.834z" fill="#FFF" fill-rule="nonzero" opacity=".4"/><path d="M68 0h24v24H68z"/><path d="M88.843 4.797a.866.866 0 0 1-.764.93l-.03.002-14.077 1.132a.261.261 0 0 0-.24.24v1.345l.126-.012.128-.004H86.86c1.045 0 1.902.806 1.98 1.83l.007.156v7.598a1.987 1.987 0 0 1-1.831 1.98L86.86 20H73.986a1.987 1.987 0 0 1-1.98-1.831L72 18.014V7.12c0-1.025.777-1.88 1.792-1.983l.041-.003 14.078-1.132a.866.866 0 0 1 .932.794z" fill="#FFF" fill-rule="nonzero"/><path d="M68 34h24v24H68z"/><path d="M72 40.963c0-.923.699-1.694 1.613-1.787l.038-.004 14.39-1.17a.714.714 0 0 1 .142 1.42l-.026.003-14.39 1.17a.37.37 0 0 0-.34.347v1.604a1.82 1.82 0 0 1 .364-.037h13.23c.99 0 1.791.802 1.791 1.79v7.91A1.79 1.79 0 0 1 87.022 54H73.79A1.79 1.79 0 0 1 72 52.21V40.962zm15.022 2.973H73.79a.364.364 0 0 0-.364.364v7.91c0 .2.163.363.364.363h13.23a.363.363 0 0 0 .364-.364V44.3c0-.2-.162-.363-.363-.363z" fill="#FFF" fill-rule="nonzero" opacity=".4"/><path d="M102 0h24v24h-24z"/><path d="M112.323 4.266a8.645 8.645 0 0 0-1.452 4.819 8.65 8.65 0 0 0 2.55 6.156 8.649 8.649 0 0 0 6.156 2.55c.59 0 1.169-.059 1.733-.172a8.487 8.487 0 0 1-6.796 3.38 8.482 8.482 0 0 1-6.02-2.489A8.458 8.458 0 0 1 106 12.49c0-2.275.886-4.413 2.494-6.021a8.46 8.46 0 0 1 3.83-2.203zm2.76-.266a8.476 8.476 0 0 1 5.452 2.469 8.457 8.457 0 0 1 2.494 6.02c0 .923-.148 1.823-.429 2.674a6.757 6.757 0 0 1-3.023.71 6.743 6.743 0 0 1-4.799-1.989 6.743 6.743 0 0 1-1.988-4.8A6.743 6.743 0 0 1 115.083 4z" fill="#FFF" fill-rule="nonzero"/><path d="M102 34h24v24h-24z"/><path d="M108.49 40.49a8.5 8.5 0 1 1 12.02 12.02 8.5 8.5 0 0 1-12.02-12.02zm3.081-.313-.019.008a6.968 6.968 0 1 0 7.875 11.242l-.175.169a8.505 8.505 0 0 1-7.68-11.419zm7.774 1.315a6.957 6.957 0 0 0-5.814-1.892 6.968 6.968 0 0 0 6.995 10.4 6.97 6.97 0 0 0-1.1-8.427l-.081-.08z" fill="#FFF" fill-rule="nonzero" opacity=".4"/><path d="M136 0h24v24h-24z"/><path d="M148.573 9.204h-4.26a.765.765 0 1 1 0-1.53h4.26a.765.765 0 1 1 0 1.53m0 3.104h-4.26a.765.765 0 1 1 0-1.53h4.26a.765.765 0 1 1 0 1.53m0 3.103h-4.26a.765.765 0 1 1 0-1.53h4.26a.765.765 0 1 1 0 1.53m6.72-6.45h-1.92v6.02c0 .246-.18.465-.424.489a.47.47 0 0 1-.517-.469V4.965a.965.965 0 0 0-.965-.965h-10.508a.96.96 0 0 0-.959.959v10.308a4.081 4.081 0 0 0 4.081 4.082h7.838A4.081 4.081 0 0 0 156 15.268V9.667a.706.706 0 0 0-.706-.706" fill="#FFF" fill-rule="nonzero"/><path d="M136 34h24v24h-24z"/><path d="M151.578 38c.601 0 1.09.488 1.09 1.09v3.87h2.243c.59 0 1.072.471 1.089 1.058v5.25a4.081 4.081 0 0 1-4.081 4.081h-7.838A4.081 4.081 0 0 1 140 49.267V39.09a1.09 1.09 0 0 1 1.09-1.089h10.488zm-.323 1.412h-9.843v9.855a2.67 2.67 0 0 0 2.625 2.67h7.882a2.67 2.67 0 0 0 2.669-2.67v-4.894h-1.922l.001 4.405a.706.706 0 0 1-1.412.027v-9.393zm-2.733 8.66a.706.706 0 0 1 .026 1.412h-4.287a.706.706 0 0 1-.027-1.411h4.288zm0-3.104a.706.706 0 0 1 .026 1.412h-4.287a.706.706 0 0 1-.027-1.411h4.288zm0-3.104a.706.706 0 0 1 .026 1.412h-4.287a.706.706 0 0 1-.027-1.411h4.288z" fill="#FFF" fill-rule="nonzero" opacity=".4"/><path d="M170 0h24v24h-24z"/><path d="M182 4a8 8 0 1 1 0 16 8 8 0 0 1 0-16zm.773 4.333h-1.63c-.631 0-1.143.512-1.143 1.143v6.634c.809 0 1.465-.656 1.465-1.465v-1.707h1.284c.843 0 1.503-.201 1.98-.603.477-.402.715-.952.715-1.648 0-.46-.109-.868-.327-1.228a2.159 2.159 0 0 0-.935-.833c-.405-.195-.875-.293-1.409-.293zm.035 1.187c.36.006.644.117.85.332.204.215.307.496.307.845 0 .338-.102.599-.305.78-.204.183-.5.274-.887.274h-1.308v-1.66c0-.315.256-.571.571-.571h.772z" fill="#FFF" fill-rule="nonzero"/><path d="M170 34h24v24h-24z"/><path d="M182 38a8 8 0 1 1 0 16 8 8 0 0 1 0-16zm0 1.333a6.667 6.667 0 1 0 0 13.334 6.667 6.667 0 0 0 0-13.334zm.773 3c.534 0 1.004.098 1.41.293.404.196.716.473.934.833.218.36.327.769.327 1.228 0 .696-.238 1.246-.715 1.648-.44.37-1.036.57-1.789.6l-.191.003h-1.284v1.707c0 .774-.6 1.408-1.36 1.462l-.105.003V43c0-.342.257-.624.589-.662l.078-.005h2.106zm.035 1.187h-1.01c-.163 0-.3.118-.328.273l-.005.06v1.898h1.308c.388 0 .683-.09.887-.273.203-.182.305-.443.305-.781 0-.349-.103-.63-.308-.845-.18-.188-.418-.296-.718-.325l-.131-.007z" fill="#FFF" fill-rule="nonzero" opacity=".4"/><path d="M204 0h24v24h-24z"/><path d="M219.63 7c.891 0 1.616.725 1.616 1.615v6.878c0 .89-.725 1.615-1.616 1.615h-7.26a1.618 1.618 0 0 1-1.616-1.615V8.615c0-.89.725-1.615 1.616-1.615h7.26zm3.79 1.929c.32 0 .58.26.58.58v5.09a.58.58 0 0 1-1.16 0v-5.09c0-.32.26-.58.58-.58zm-14.84 0c.32 0 .58.26.58.58v5.09a.58.58 0 0 1-1.16 0v-5.09c0-.32.26-.58.58-.58z" fill="#FFF" fill-rule="nonzero"/><path d="M204 34h24v24h-24z"/><path d="M219.63 41c.891 0 1.616.725 1.616 1.615v6.878c0 .89-.725 1.615-1.616 1.615h-7.26a1.618 1.618 0 0 1-1.616-1.615v-6.878c0-.89.725-1.615 1.616-1.615h7.26zm0 1.16h-7.26a.455.455 0 0 0-.455.455v6.878c0 .25.204.454.455.454h7.26a.455.455 0 0 0 .455-.454v-6.878a.455.455 0 0 0-.455-.454zm3.79.769c.32 0 .58.26.58.58v5.09a.58.58 0 0 1-1.16 0v-5.09c0-.32.26-.58.58-.58zm-14.84 0c.32 0 .58.26.58.58v5.09a.58.58 0 0 1-1.16 0v-5.09c0-.32.26-.58.58-.58z" fill="#FFF" fill-rule="nonzero" opacity=".4"/><path d="M238 0h24v24h-24z"/><path d="m251.725 13.182.834-2.01h.262l.834 2.01h-1.93zm5.18 3.684c0 .57-.463 1.033-1.033 1.033h-5.325v-1.965a.548.548 0 0 0 .102-.16l.622-1.497h2.838l.621 1.498a.547.547 0 1 0 1.011-.42l-.762-1.836-.002-.004-1.286-3.1a.547.547 0 0 0-.505-.338h-.993a.547.547 0 0 0-.505.338l-1.14 2.75v-1.996c-1.113-.243-1.947.085-2.405.357.152.273.235.58.235.895 0 1.092-.868 1.915-2.02 1.915-1.161 0-2.035-.734-2.34-1.964a.547.547 0 0 1 1.063-.262c.186.751.615 1.132 1.277 1.132.554 0 .926-.33.926-.821a.773.773 0 0 0-.279-.587.983.983 0 0 0-.647-.235.547.547 0 0 1 0-1.094c.51 0 .926-.368.926-.821 0-.453-.415-.821-.926-.821a.976.976 0 0 0-.669.254.86.86 0 0 0-.11.124.547.547 0 0 1-.885-.644c.074-.101.158-.196.25-.282.38-.353.882-.547 1.414-.547 1.114 0 2.02.86 2.02 1.916 0 .198-.032.39-.091.57a4.358 4.358 0 0 1 2.26-.2v-2.07h5.325c.57 0 1.033.463 1.033 1.033v7.849zm-1.033-9.977h-5.325V5.547A.547.547 0 0 0 250 5h-5.872A2.13 2.13 0 0 0 242 7.128v7.849a2.13 2.13 0 0 0 2.128 2.127h5.325v1.342c0 .302.245.547.547.547h5.872A2.13 2.13 0 0 0 258 16.866v-7.85a2.13 2.13 0 0 0-2.128-2.127z" fill="#FFF" fill-rule="nonzero"/><path d="M238 34h24v24h-24z"/><path d="m251.725 47.182.834-2.01h.262l.834 2.01h-1.93zm5.18 3.684c0 .57-.463 1.033-1.033 1.033h-5.325v-1.965a.548.548 0 0 0 .102-.159l.622-1.498h2.838l.621 1.498a.547.547 0 1 0 1.011-.42l-.762-1.835-.002-.006-1.285-3.1a.547.547 0 0 0-.506-.337h-.993a.547.547 0 0 0-.505.338l-1.14 2.75v-5.181h5.324c.57 0 1.033.463 1.033 1.033v7.849zm-12.777-.856c-.57 0-1.033-.463-1.033-1.033v-7.85c0-.57.463-1.032 1.033-1.032h5.325v3.984a5.078 5.078 0 0 0-1.588.324 1.82 1.82 0 0 0 .149-.72c0-1.056-.907-1.915-2.02-1.915-.533 0-1.035.194-1.415.547a1.95 1.95 0 0 0-.25.282.547.547 0 1 0 .886.643.863.863 0 0 1 .11-.123.977.977 0 0 1 .668-.254c.51 0 .926.368.926.82 0 .454-.415.822-.926.822a.547.547 0 0 0 0 1.094c.243 0 .473.084.647.235.18.156.28.365.28.587 0 .49-.373.82-.927.82-.661 0-1.09-.38-1.276-1.131a.548.548 0 0 0-1.063.262c.304 1.23 1.178 1.964 2.34 1.964 1.151 0 2.02-.823 2.02-1.915 0-.285-.068-.563-.194-.816.412-.19 1.017-.412 1.633-.432v4.837h-5.325zm11.744-9.121h-5.325v-1.342A.547.547 0 0 0 250 39h-5.872A2.13 2.13 0 0 0 242 41.128v7.849a2.13 2.13 0 0 0 2.128 2.127h5.325v1.342c0 .302.245.547.547.547h5.872A2.13 2.13 0 0 0 258 50.866v-7.85a2.13 2.13 0 0 0-2.128-2.127z" fill="#FFF" fill-rule="nonzero" opacity=".4"/><path d="M272 0h24v24h-24z"/><g fill-rule="nonzero"><path d="M288.218 9.443a9.98 9.98 0 0 0 2.626.101 1 1 0 0 1 1.086 1.118l-.027.136-1.357 5.065a3.696 3.696 0 0 1-1.828 2.308l-.212.105-.698.32a4.489 4.489 0 0 1-1.87.407 4.529 4.529 0 0 1-2.675-.875 5.907 5.907 0 0 0 2.244-1.02l.246-.192.643-.531.037-.03.002-.002.207-.184a5.04 5.04 0 0 0 .408-.433l.027.083a.549.549 0 1 0 1.06-.28 2.762 2.762 0 0 0-.401-.87 5.03 5.03 0 0 0 .476-1.879l.007-.277v-3.07zM285.535 5a1.915 1.915 0 0 1 1.905 1.727l.009.187v5.244a4.606 4.606 0 0 1-1.44 3.352l-.203.181-.001.002-.034.028-.592.489a5.434 5.434 0 0 1-6.682.178l-.228-.178-.592-.49a4.605 4.605 0 0 1-1.67-3.304l-.007-.258V6.914a1.914 1.914 0 0 1 1.72-1.904l.194-.01.17.008c.17.015.336.052.496.112a8.999 8.999 0 0 0 3.144.565 9 9 0 0 0 3.144-.565c.214-.08.438-.12.667-.12z" fill="#FFF"/><path d="M281.724 13.838c-1.095 0-2.12-.523-2.674-1.365a.548.548 0 1 1 .917-.603c.354.537 1.027.87 1.757.87s1.404-.333 1.758-.87a.548.548 0 1 1 .916.603c-.554.842-1.579 1.365-2.674 1.365" fill="#000"/></g><path d="M306 0h24v24h-24z"/><path d="M320.5 11.41a66.367 66.367 0 0 1-3.81 2.404.515.515 0 0 1-.771-.427 54.024 54.024 0 0 1 .005-4.557.515.515 0 0 1 .755-.436c1.505.8 2.971 1.659 3.795 2.151a.512.512 0 0 1 .025.864m2.146-5.414a6.832 6.832 0 0 0-9.65 0 6.831 6.831 0 0 0 0 9.65l4.023 4.022c.214.215.5.333.802.333.304 0 .589-.118.803-.333l4.022-4.022a6.778 6.778 0 0 0 2-4.825c0-1.823-.71-3.536-2-4.825" fill="#FFF"/><path d="M272 34h24v24h-24z"/><path d="M284.974 39.069a1.085 1.085 0 0 1 1.462 1.016v2.065c1.399.46 2.888.632 4.377.491a1.085 1.085 0 0 1 1.176 1.232l-.027.129-1.472 5.494a4.023 4.023 0 0 1-1.998 2.512l-.215.106-.757.346a4.89 4.89 0 0 1-5.87-1.413l-.15-.2-.229-.32a4.882 4.882 0 0 1-3.17-1.122l-.641-.53a4.023 4.023 0 0 1-1.46-3.101v-5.689c0-.755.754-1.28 1.462-1.016 2.423.9 5.089.9 7.512 0zm1.462 4.327v2.378c0 .48-.086.95-.248 1.39a2.992 2.992 0 0 1 1.69 1.981.595.595 0 0 1-1.145.325l-.006-.022a1.806 1.806 0 0 0-1.117-1.235 3.934 3.934 0 0 1-.634.662l-.642.53a4.879 4.879 0 0 1-1.735.923l-.13-.171a3.7 3.7 0 0 0 4.353 1.306l.203-.086.757-.346a2.833 2.833 0 0 0 1.496-1.642l.062-.2 1.434-5.35-.105.009a11.974 11.974 0 0 1-4.233-.452zm-1.19-3.16-.101.036c-2.57.892-5.37.883-7.935-.029l-.02-.007v5.538c0 .83.364 1.616.993 2.154l.035.03.642.53a3.701 3.701 0 0 0 4.716 0l.642-.53a2.833 2.833 0 0 0 1.028-2.184v-5.538zm-1.646 5.036a.595.595 0 0 1 .222.812 2.996 2.996 0 0 1-5.208 0 .595.595 0 0 1 1.022-.61l.012.02a1.806 1.806 0 0 0 3.14 0 .595.595 0 0 1 .812-.222z" fill="#FFF" fill-rule="nonzero" opacity=".4"/><path d="M306 34h24v24h-24z"/><path d="M313.183 39.814c2.673-2.478 6.864-2.417 9.462.181a6.777 6.777 0 0 1 2 4.825c0 1.822-.71 3.536-2 4.825l-4.022 4.022c-.214.215-.5.333-.803.333-.303 0-.588-.118-.802-.333l-4.023-4.022a6.831 6.831 0 0 1 0-9.65zm8.73.937a5.795 5.795 0 0 0-8.186 0l-.177.186a5.795 5.795 0 0 0 .178 7.999l3.942 3.942a.213.213 0 0 0 .301 0l3.942-3.942a5.75 5.75 0 0 0 1.695-4.092 5.749 5.749 0 0 0-1.695-4.093zm-5.748 1.52a.915.915 0 0 1 .89-.014 83.329 83.329 0 0 1 3.44 1.95.92.92 0 0 1 .447.764.917.917 0 0 1-.403.788 60.68 60.68 0 0 1-3.459 2.184.916.916 0 0 1-.903.011.92.92 0 0 1-.48-.773 49.116 49.116 0 0 1 .004-4.144.92.92 0 0 1 .464-.765zm.51.858a44.453 44.453 0 0 0-.011 3.952l.006.008a58.59 58.59 0 0 0 3.304-2.088l-.141-.084a77.23 77.23 0 0 0-3.158-1.788z" fill="#FFF" fill-rule="nonzero" opacity=".4"/></g></svg>