<svg xmlns="http://www.w3.org/2000/svg" xmlns:xlink="http://www.w3.org/1999/xlink" viewBox="0 0 24 24"><defs><filter id="a" width="166.7%" height="183.3%" x="-33.3%" y="-33.3%" filterUnits="objectBoundingBox"><feOffset dy="2" in="SourceAlpha" result="shadowOffsetOuter1"/><feGaussianBlur in="shadowOffsetOuter1" result="shadowBlurOuter1" stdDeviation="1"/><feColorMatrix in="shadowBlurOuter1" result="shadowMatrixOuter1" values="0 0 0 0 0 0 0 0 0 0 0 0 0 0 0 0 0 0 0.24 0"/><feOffset in="SourceAlpha" result="shadowOffsetOuter2"/><feGaussianBlur in="shadowOffsetOuter2" result="shadowBlurOuter2" stdDeviation="1"/><feColorMatrix in="shadowBlurOuter2" result="shadowMatrixOuter2" values="0 0 0 0 0 0 0 0 0 0 0 0 0 0 0 0 0 0 0.12 0"/><feMerge><feMergeNode in="shadowMatrixOuter1"/><feMergeNode in="shadowMatrixOuter2"/></feMerge></filter><path id="b" d="M17.595 8.189c.465-.463.554-1.219.14-1.726a1.255 1.255 0 0 0-1.86-.096L12.267 9.97a.369.369 0 0 1-.52 0L8.19 6.417c-.463-.463-1.219-.551-1.727-.137a1.25 1.25 0 0 0-.096 1.857l3.608 3.603a.369.369 0 0 1 0 .52l-3.551 3.547c-.473.472-.559 1.246-.124 1.753a1.254 1.254 0 0 0 1.84.073l3.607-3.603a.367.367 0 0 1 .52 0l3.608 3.603a1.25 1.25 0 0 0 1.84-.073c.434-.507.349-1.281-.124-1.753l-3.552-3.548a.368.368 0 0 1 0-.519l3.556-3.551z"/></defs><g fill="none" fill-rule="evenodd" transform="rotate(45 12 12)"><use fill="#000" filter="url(#a)" xlink:href="#b"/><use fill="#B0B0B0" xlink:href="#b"/></g></svg>